<svg width="70" height="71" viewBox="0 0 70 71" fill="none" xmlns="http://www.w3.org/2000/svg">
<path d="M70 35C70 54.33 54.33 70 35 70C15.67 70 0 54.33 0 35C0 15.67 15.67 0 35 0C54.33 0 70 15.67 70 35Z" fill="#D9D9D9"/>
<path d="M28.6665 32.6644C30.6892 34.0242 33.0673 34.75 35.5 34.75C38.7611 34.7464 41.8875 33.4414 44.1934 31.1214C46.4993 28.8015 47.7964 25.6559 47.8 22.375C47.8 19.9275 47.0786 17.5349 45.7271 15.4998C44.3755 13.4648 42.4545 11.8786 40.207 10.942C37.9595 10.0054 35.4864 9.76029 33.1004 10.2378C30.7144 10.7153 28.5228 11.8939 26.8026 13.6246C25.0824 15.3552 23.9109 17.5602 23.4363 19.9608C22.9617 22.3613 23.2053 24.8495 24.1363 27.1107C25.0672 29.3719 26.6438 31.3047 28.6665 32.6644Z" fill="#8A8A8A"/>
<path d="M53.5 46.5C57.3445 50.3679 60 54.0299 60 59.5C56.5 64 47.8 69.5 35.5 70C35.5 70 23.9363 71 11.5 61C11.5 55.5299 13.6555 50.3679 17.5 46.5C21.3445 42.6321 30.0631 40.25 35.5 40.25C40.9369 40.25 49.6555 42.6321 53.5 46.5Z" fill="#8A8A8A"/>
</svg>
