<svg width="850" height="850" viewBox="0 0 850 850" fill="none" xmlns="http://www.w3.org/2000/svg">
<circle cx="425" cy="425" r="425" fill="white"/>
<circle cx="425" cy="425" r="399.5" fill="#0E76F5" stroke="white"/>
<path d="M502.242 441.435H502.305L502.237 441.292L462.899 358.28H499.837C510.496 358.28 520.25 364.363 524.715 373.751L554.413 436.372C560.816 449.889 577.265 455.745 591.035 449.512C604.861 443.305 610.907 427.316 604.503 413.85L574.805 351.203L574.714 351.246L574.805 351.203C561.341 322.842 531.909 304.535 499.809 304.535V304.543C499.809 304.535 499.809 304.535 499.808 304.535H499.806L499.794 304.535L499.749 304.535L499.572 304.534L498.881 304.532L496.254 304.524C493.991 304.517 490.755 304.508 486.867 304.497C479.091 304.476 468.705 304.451 458.266 304.435C447.827 304.418 437.335 304.409 429.345 304.422C425.351 304.428 421.982 304.44 419.558 304.458C418.346 304.467 417.371 304.478 416.671 304.491C416.321 304.497 416.04 304.504 415.833 304.511C415.633 304.519 415.495 304.526 415.432 304.536C394.509 306.439 374.909 316.437 360.924 331.956C360.88 332.005 360.801 332.115 360.694 332.275C360.586 332.438 360.443 332.659 360.269 332.934C359.921 333.484 359.446 334.25 358.862 335.201C357.696 337.104 356.096 339.749 354.21 342.886C350.439 349.158 345.523 357.396 340.646 365.592C335.768 373.787 330.928 381.941 327.308 388.046C325.498 391.099 323.992 393.639 322.94 395.416L321.718 397.478L321.397 398.021L321.314 398.16L321.294 398.196L321.288 398.204L321.287 398.207C321.287 398.207 321.287 398.207 321.373 398.258L321.287 398.207L321.286 398.208C316.41 406.502 307.314 411.625 297.504 411.625H232.498C217.267 411.625 204.9 423.634 204.9 438.497C204.9 453.36 217.267 465.37 232.498 465.37H297.504C327.017 465.37 354.466 449.904 369.168 424.948L375.177 414.749L420.82 511.129L373.365 548.856L373.427 548.934L373.365 548.856C354.093 564.188 343.024 586.92 343.024 611.153V679.45C343.024 694.313 355.39 706.322 370.622 706.322C385.854 706.322 398.22 694.313 398.22 679.45V611.153C398.22 603.099 401.891 595.551 408.274 590.483L471.925 539.888C471.926 539.888 471.928 539.887 471.929 539.886C504.676 518.735 517.623 478.067 502.242 441.435ZM498.794 573.586L498.793 573.586C489.96 585.68 492.86 602.449 505.279 611.075L505.336 610.992L505.279 611.075C519.348 620.832 535.922 626.005 553.183 626.005H617.502C632.733 626.005 645.1 613.995 645.1 599.132C645.1 584.269 632.761 572.26 617.529 572.26H553.211C547.484 572.26 541.977 570.552 537.291 567.298L537.234 567.38L537.291 567.298C524.873 558.7 507.653 561.521 498.794 573.586ZM425.141 210.931C425.141 173.901 394.323 143.9 356.296 143.9C318.268 143.9 287.45 173.901 287.45 210.931C287.45 247.962 318.268 277.962 356.296 277.962C394.323 277.962 425.141 247.962 425.141 210.931Z" fill="white" stroke="white" stroke-width="0.2"/>
</svg>
